<svg width="24" height="24" viewBox="0 0 24 24" fill="none" xmlns="http://www.w3.org/2000/svg">
<path d="M12 24C18.6274 24 24 18.6274 24 12C24 5.37258 18.6274 0 12 0C5.37258 0 0 5.37258 0 12C0 18.6274 5.37258 24 12 24Z" fill="#29A71A"/>
<path d="M17.2918 6.70914C16.0433 5.44818 14.3853 4.67488 12.6168 4.52872C10.8484 4.38255 9.08591 4.87315 7.64733 5.91202C6.20875 6.95088 5.18875 8.46963 4.77133 10.1943C4.35391 11.919 4.56653 13.7361 5.37086 15.3178L4.58131 19.151C4.57312 19.1891 4.57289 19.2285 4.58063 19.2668C4.58838 19.305 4.60393 19.3413 4.62631 19.3732C4.65911 19.4217 4.70592 19.4591 4.7605 19.4803C4.81508 19.5015 4.87483 19.5055 4.93177 19.4919L8.68859 18.6014C10.2659 19.3854 12.0701 19.5843 13.7803 19.1629C15.4905 18.7414 16.9957 17.7269 18.0281 16.2998C19.0605 14.8727 19.5531 13.1257 19.4182 11.3695C19.2834 9.6133 18.5299 7.96191 17.2918 6.70914ZM16.1204 16.0582C15.2566 16.9196 14.1442 17.4883 12.9401 17.684C11.736 17.8797 10.5008 17.6926 9.40859 17.1491L8.88495 16.89L6.58177 17.4355L6.58859 17.4069L7.06586 15.0887L6.8095 14.5828C6.25144 13.4868 6.05458 12.2423 6.24711 11.0276C6.43965 9.81284 7.0117 8.69021 7.88132 7.8205C8.974 6.72815 10.4558 6.11451 12.0009 6.11451C13.5459 6.11451 15.0277 6.72815 16.1204 7.8205C16.1297 7.83118 16.1397 7.8412 16.1504 7.8505C17.2296 8.94567 17.832 10.423 17.8264 11.9605C17.8207 13.498 17.2075 14.971 16.1204 16.0582Z" fill="white"/>
<path d="M15.9152 14.3575C15.6329 14.802 15.187 15.3461 14.6265 15.4811C13.6447 15.7184 12.1379 15.4893 10.2629 13.7411L10.2397 13.7206C8.59106 12.192 8.16288 10.9197 8.26652 9.91064C8.32379 9.33791 8.80106 8.81973 9.20333 8.48155C9.26693 8.42727 9.34235 8.38863 9.42356 8.3687C9.50476 8.34878 9.5895 8.34814 9.671 8.36682C9.7525 8.38551 9.82849 8.423 9.89291 8.47631C9.95732 8.52962 10.0084 8.59726 10.042 8.67382L10.6488 10.0375C10.6882 10.1259 10.7028 10.2234 10.6911 10.3195C10.6793 10.4156 10.6416 10.5066 10.582 10.5829L10.2752 10.9811C10.2093 11.0633 10.1696 11.1633 10.1611 11.2683C10.1526 11.3733 10.1757 11.4784 10.2274 11.5702C10.3992 11.8715 10.8111 12.3147 11.2679 12.7252C11.7806 13.1888 12.3492 13.6129 12.7092 13.7575C12.8056 13.7968 12.9115 13.8064 13.0133 13.785C13.1152 13.7636 13.2083 13.7122 13.2806 13.6375L13.6365 13.2788C13.7052 13.2111 13.7906 13.1628 13.884 13.1389C13.9774 13.1149 14.0755 13.1161 14.1683 13.1425L15.6097 13.5515C15.6892 13.5759 15.7621 13.6182 15.8228 13.6751C15.8834 13.7319 15.9303 13.8019 15.9598 13.8797C15.9893 13.9575 16.0006 14.0409 15.9928 14.1238C15.9851 14.2066 15.9585 14.2865 15.9152 14.3575Z" fill="white"/>
</svg>
