<svg width="181" height="40" viewBox="0 0 181 40" fill="none" xmlns="http://www.w3.org/2000/svg">
<path d="M34.2535 40H5.74647C2.57364 40 0 37.4264 0 34.2519V5.74594C0 2.57257 2.57257 0 5.74594 0H34.2541C37.4285 0 40 2.57363 40 5.74594V34.2519C40.0021 37.4264 37.4285 40 34.2535 40Z" fill="#0077B5"/>
<path d="M26.7283 29.2339C26.7283 30.3657 26.7294 31.497 26.7278 32.6294C26.7272 32.9244 26.5776 33.13 26.3448 33.1013C26.2053 33.0842 26.0524 32.9921 25.9501 32.8893C24.3778 31.3218 22.8119 29.7484 21.2492 28.1713C21.1235 28.0435 20.9983 27.9907 20.8183 27.9913C18.4764 27.9971 16.1344 27.9977 13.7925 27.9929C13.4718 27.9923 13.1469 27.9844 12.8311 27.9359C10.0156 27.5018 8.08062 25.2397 8.07796 22.387C8.0753 19.9002 8.0753 17.4144 8.08009 14.9276C8.08062 14.615 8.09394 14.2975 8.14401 13.9897C8.59194 11.2408 10.8481 9.32284 13.6354 9.32071C17.8404 9.31751 22.046 9.31858 26.2516 9.32284C26.5637 9.32337 26.8806 9.33722 27.1869 9.39101C29.916 9.8725 31.8037 12.1026 31.8186 14.8765C31.8319 17.4208 31.834 19.9646 31.8266 22.5095C31.8196 24.8515 30.3299 26.918 28.1136 27.66C27.6721 27.8075 27.2071 27.8842 26.7294 28.0003C26.7283 28.3934 26.7283 28.8137 26.7283 29.2339ZM25.9368 27.7633C25.9368 27.3154 26.029 27.22 26.4833 27.195C28.7837 27.065 30.5259 25.5609 30.9568 23.3218C31.0079 23.056 31.0319 22.7806 31.0324 22.5101C31.0351 19.9657 31.0377 17.4219 31.0255 14.877C31.0148 12.5212 29.4617 10.6443 27.1581 10.1931C26.8614 10.1351 26.5525 10.1154 26.2489 10.1148C22.0348 10.1095 17.8218 10.109 13.6082 10.1127C10.9371 10.1148 8.87903 12.1729 8.86997 14.8547C8.86145 17.3495 8.86731 19.8437 8.86837 22.3391C8.86944 25.1433 10.8977 27.1897 13.6987 27.1993C16.0652 27.2073 18.4322 27.2115 20.7986 27.1913C21.2311 27.1876 21.5326 27.3159 21.8319 27.6243C23.1097 28.9372 24.4108 30.2272 25.7046 31.5252C25.7658 31.587 25.8314 31.6456 25.9368 31.7452C25.9368 30.3737 25.9368 29.0688 25.9368 27.7633Z" fill="white"/>
<path d="M26.3876 33.4071C26.361 33.4071 26.3344 33.4055 26.3072 33.4023C26.1128 33.3783 25.8987 33.267 25.7352 33.1035C24.2901 31.6627 22.7519 30.1192 21.0332 28.3844C20.9634 28.3141 20.9176 28.2944 20.8212 28.2944C20.8206 28.2944 20.8196 28.2944 20.819 28.2944C18.4755 28.3003 16.1112 28.3008 13.7916 28.296C13.4699 28.2955 13.1253 28.2875 12.7844 28.2358C11.3304 28.0116 10.0798 27.3304 9.16844 26.2657C8.25712 25.2015 7.77456 23.8603 7.7735 22.3866C7.7703 19.6393 7.77084 17.1988 7.77563 14.9266C7.77616 14.5277 7.79747 14.2236 7.84327 13.9408C8.31518 11.0438 10.6965 9.01933 13.6345 9.01666C17.6611 9.01347 21.7884 9.014 26.2518 9.01879C26.6539 9.01933 26.9586 9.04223 27.2398 9.09176C28.6502 9.3405 29.8651 10.0276 30.753 11.0779C31.6414 12.1293 32.1149 13.4422 32.1224 14.875C32.1352 17.3565 32.1378 19.9253 32.1304 22.5107C32.1229 24.981 30.5474 27.1663 28.2097 27.9482C27.8944 28.0537 27.5668 28.1251 27.2499 28.1938C27.178 28.2092 27.1056 28.2252 27.0321 28.2417C27.0316 28.5634 27.0316 28.899 27.0316 29.234V30.1943C27.0316 31.006 27.0321 31.8177 27.031 32.6294C27.0305 32.8942 26.9421 33.1179 26.7818 33.259C26.6726 33.3554 26.5346 33.4071 26.3876 33.4071ZM20.8217 27.6862C21.079 27.6862 21.284 27.7725 21.4662 27.9567C23.1839 29.6899 24.721 31.2329 26.1655 32.6731C26.239 32.7466 26.3317 32.7924 26.3823 32.7983C26.3828 32.7983 26.3839 32.7983 26.3844 32.7983C26.3967 32.7834 26.4238 32.7301 26.4244 32.6278C26.4254 31.8167 26.4254 31.0055 26.4249 30.1938V29.2329C26.4249 28.8127 26.4249 28.3919 26.426 27.9983L26.4265 27.7597L26.6582 27.7037C26.8153 27.6659 26.9708 27.6318 27.1216 27.5988C27.4364 27.5301 27.7336 27.4657 28.0174 27.3709C30.1075 26.6715 31.5162 24.7173 31.5226 22.508C31.5301 19.9248 31.5274 17.3575 31.5146 14.8776C31.5008 12.2342 29.7405 10.1496 27.1344 9.69043C26.8888 9.64729 26.6166 9.62758 26.2513 9.62652C21.7884 9.62172 17.6617 9.62119 13.6356 9.62439C11.0017 9.62652 8.86697 11.4417 8.44407 14.0382C8.40306 14.288 8.38495 14.5623 8.38442 14.9277C8.37962 17.1999 8.37909 19.6393 8.38229 22.386C8.38495 25.1115 10.1916 27.2207 12.8776 27.635C13.178 27.6808 13.4955 27.6878 13.7932 27.6883C16.1122 27.6926 18.4755 27.692 20.8174 27.6867C20.8196 27.6862 20.8206 27.6862 20.8217 27.6862ZM26.2401 32.4478L25.6403 31.8843C25.5812 31.8294 25.5349 31.7858 25.4891 31.74C25.1594 31.4087 24.8292 31.079 24.4995 30.7488C23.5498 29.7986 22.5676 28.8159 21.6137 27.8358C21.3687 27.5839 21.1482 27.4923 20.8009 27.495C18.3482 27.5163 15.8481 27.5104 13.6973 27.5029C10.7242 27.4928 8.56551 25.3208 8.56391 22.3386C8.56391 21.7293 8.56285 21.1205 8.56231 20.5112C8.56072 18.6566 8.55912 16.7392 8.56551 14.8531C8.5703 13.4753 9.08855 12.2007 10.0254 11.2633C10.9623 10.3259 12.2342 9.80921 13.6079 9.80814C17.9083 9.80494 22.1613 9.80548 26.2497 9.81027C26.6161 9.8108 26.9325 9.8385 27.2169 9.89389C29.6654 10.3733 31.3186 12.3749 31.3298 14.8745C31.3415 17.3314 31.3399 19.7858 31.3368 22.5091C31.3362 22.8089 31.3091 23.1014 31.2558 23.3778C30.8004 25.7426 28.9341 27.3597 26.5005 27.4971C26.3407 27.5061 26.2822 27.5227 26.2614 27.5312C26.2545 27.5509 26.2411 27.6089 26.2411 27.7618C26.2411 29.0667 26.2411 30.3722 26.2406 31.7437L26.2401 32.4478ZM20.8164 26.8867C21.3154 26.8867 21.6963 27.0492 22.0489 27.4119C22.9996 28.3887 23.9802 29.3698 24.9288 30.3189C25.1631 30.5533 25.398 30.7882 25.6324 31.0231C25.6329 29.9115 25.6329 28.8372 25.6329 27.7629C25.6329 27.153 25.8513 26.9245 26.4664 26.891C28.6449 26.7679 30.2513 25.3783 30.6582 23.2638C30.704 23.0247 30.728 22.7706 30.7285 22.5091C30.7317 19.7868 30.7333 17.3336 30.7216 14.8782C30.7115 12.6763 29.2558 10.9139 27.0997 10.4915C26.8542 10.4436 26.5756 10.4196 26.2486 10.4191C22.1613 10.4143 17.9083 10.4132 13.6084 10.4169C11.0885 10.4191 9.18229 12.3274 9.17377 14.8558C9.16737 16.7408 9.16897 18.6577 9.17057 20.5112C9.1711 21.1205 9.17164 21.7298 9.17217 22.3386C9.17323 24.9698 11.0774 26.8862 13.6995 26.8952C15.8486 26.9021 18.3466 26.9085 20.7956 26.8872C20.8025 26.8867 20.8095 26.8867 20.8164 26.8867Z" fill="white"/>
<path d="M21.7303 15.5035C21.7447 16.8495 20.6512 17.9531 19.2856 17.9712C17.9402 17.9893 16.8137 16.8878 16.8009 15.5403C16.7871 14.1853 17.8816 13.0572 19.2222 13.0434C20.6102 13.029 21.7154 14.1134 21.7303 15.5035ZM20.8611 15.5121C20.8632 14.6284 20.1495 13.9137 19.2643 13.9131C18.3988 13.9126 17.6765 14.6274 17.6702 15.4913C17.6638 16.376 18.3759 17.0982 19.2563 17.1003C20.1468 17.1035 20.8584 16.3989 20.8611 15.5121Z" fill="white"/>
<path d="M19.2506 18.0478C18.5928 18.0478 17.9686 17.7916 17.4898 17.3235C17.0019 16.8468 16.7297 16.214 16.7228 15.5413C16.7084 14.1362 17.8285 12.982 19.2192 12.9677C19.9137 12.9607 20.5587 13.2175 21.0429 13.692C21.5271 14.1666 21.7976 14.8095 21.8051 15.5024C21.8195 16.8867 20.6892 18.0281 19.2852 18.0468C19.2735 18.0478 19.2618 18.0478 19.2506 18.0478ZM19.248 13.12C19.2389 13.12 19.2299 13.12 19.2208 13.12C17.9137 13.1333 16.8618 14.2188 16.8751 15.5402C16.8815 16.1719 17.1372 16.7669 17.5963 17.2153C18.0544 17.6627 18.6546 17.904 19.2831 17.896C20.6035 17.8785 21.6671 16.8057 21.6533 15.5051C21.6464 14.8526 21.3918 14.2476 20.9369 13.8018C20.4879 13.3613 19.8892 13.12 19.248 13.12ZM19.2602 17.1765C19.2581 17.1765 19.2565 17.1765 19.2544 17.1765C18.8096 17.1754 18.392 17.0002 18.0778 16.6827C17.7614 16.3637 17.5894 15.9402 17.5926 15.4902C17.599 14.5783 18.3478 13.8369 19.2613 13.8369C19.2618 13.8369 19.2618 13.8369 19.2623 13.8369C19.7113 13.8374 20.1326 14.0116 20.4485 14.3285C20.7638 14.6444 20.9364 15.0651 20.9353 15.512C20.9326 16.4468 20.1971 17.1765 19.2602 17.1765ZM19.2618 13.9892C18.4453 13.9892 17.7508 14.6769 17.7449 15.4918C17.7422 15.9008 17.8988 16.2859 18.1864 16.5762C18.4719 16.8643 18.8512 17.0236 19.2554 17.0247C19.257 17.0247 19.2586 17.0247 19.2607 17.0247C20.1129 17.0247 20.7814 16.361 20.784 15.512C20.7851 15.1056 20.628 14.7237 20.3414 14.4361C20.0544 14.148 19.6714 13.9892 19.2629 13.9892C19.2623 13.9892 19.2623 13.9892 19.2618 13.9892Z" fill="white"/>
<path d="M22.9072 19.8374L22.5562 20.3914C22.5242 20.4425 22.455 20.4579 22.4033 20.426L21.8131 20.0521C21.3743 19.8071 20.8992 19.7011 20.382 19.7085C19.5751 19.7203 18.7692 19.7112 17.9628 19.7069C16.6403 19.6979 15.5937 20.7583 15.6283 22.0792C15.6331 22.2593 15.6448 22.442 15.6768 22.6193C15.7663 23.1125 16.0624 23.3911 16.5604 23.4561C16.7085 23.4758 17.0068 23.4625 17.0068 23.4625H18.488C18.488 23.4625 18.4944 23.4832 18.4986 23.5157H21.3492C21.435 23.4832 21.4909 23.6393 21.4909 23.6393V24.2049C21.4909 24.2049 21.4355 24.361 21.3492 24.3679H18.4986C18.488 24.361 18.4789 24.3562 18.4704 24.3546C17.933 24.3562 17.3977 24.3562 16.8587 24.353C16.4986 24.3514 16.146 24.2891 15.8179 24.1352C15.2624 23.8737 14.937 23.4252 14.8347 22.834C14.6456 21.7506 14.8464 20.7488 15.558 19.888C16.0486 19.2931 16.7096 18.9906 17.4611 18.892C17.7833 18.851 18.1114 18.8462 18.4368 18.8436C19.1431 18.8361 19.8515 18.8345 20.5583 18.8409C21.1511 18.8436 21.6992 18.9879 22.2014 19.2707C22.2169 19.2723 22.2302 19.2771 22.2435 19.2862L22.8731 19.6824C22.9242 19.7165 22.9391 19.7842 22.9072 19.8374Z" fill="white"/>
<path d="M21.3521 24.4437H18.4759L18.4568 24.4314C18.4562 24.4309 18.4557 24.4309 18.4557 24.4304C17.8517 24.4325 17.3436 24.4314 16.8578 24.4288C16.4605 24.4266 16.0994 24.351 15.7851 24.204C15.2136 23.935 14.869 23.4786 14.7593 22.8469C14.5574 21.6895 14.8062 20.678 15.4991 19.8397C15.9694 19.2692 16.6267 18.9252 17.4512 18.817C17.7676 18.7771 18.0845 18.7712 18.436 18.768C19.1881 18.7601 19.8821 18.759 20.5585 18.7654C21.1556 18.768 21.717 18.914 22.2261 19.1984C22.2475 19.2027 22.2666 19.2112 22.2847 19.2234L22.9127 19.6186C22.999 19.6762 23.0246 19.7891 22.9713 19.877L22.9702 19.8786L22.6192 20.4325C22.5654 20.5193 22.4499 20.5454 22.362 20.4911L21.7713 20.1172C21.359 19.8871 20.9026 19.7784 20.3822 19.7854C19.7191 19.7949 19.0453 19.7907 18.3939 19.7864L17.9614 19.7838C17.3415 19.7784 16.7636 20.0165 16.3364 20.4517C15.9119 20.8847 15.6871 21.4621 15.7031 22.0778C15.7084 22.2892 15.7234 22.457 15.7505 22.6061C15.8341 23.0668 16.1015 23.3204 16.5692 23.3811C16.7092 23.3997 16.999 23.387 17.0016 23.387H18.5425L18.559 23.4402H21.3367C21.3686 23.4317 21.4011 23.4349 21.4315 23.4493C21.5124 23.4866 21.554 23.5931 21.5614 23.6144L21.5657 23.6266V24.2184L21.5614 24.2306C21.5497 24.2642 21.4831 24.4336 21.3542 24.4442L21.3521 24.4437ZM18.5186 24.2913H21.3441C21.3601 24.2871 21.3942 24.2413 21.415 24.1902V23.6527C21.4027 23.6245 21.3841 23.5957 21.3718 23.5878L21.3633 23.5909H21.3489H18.4323L18.4248 23.5377H17.0059C16.9969 23.5382 16.7028 23.5515 16.5495 23.5308C16.0158 23.461 15.6967 23.159 15.6014 22.6322C15.5732 22.4751 15.5572 22.2999 15.5518 22.0804C15.5348 21.4232 15.775 20.8064 16.2288 20.3441C16.6847 19.8791 17.302 19.6277 17.963 19.6304L18.3955 19.633C19.0464 19.6373 19.7191 19.6415 20.3806 19.632C20.9297 19.624 21.4102 19.7395 21.8496 19.9851L22.4435 20.3611C22.4589 20.3707 22.4813 20.3659 22.4909 20.3505L22.8413 19.7971C22.852 19.779 22.8472 19.7566 22.8296 19.7454L22.2016 19.3502C22.1969 19.347 22.1953 19.3465 22.1915 19.3459L22.1761 19.3443L22.1628 19.3369C21.6728 19.061 21.1327 18.9198 20.5569 18.9172C19.881 18.9113 19.1875 18.9124 18.4365 18.9198C18.0898 18.923 17.7771 18.9284 17.4693 18.9678C16.6842 19.0706 16.0605 19.3965 15.6152 19.9366C14.9521 20.7393 14.714 21.7097 14.9079 22.8208C15.0086 23.4008 15.3249 23.82 15.8485 24.066C16.1425 24.204 16.4818 24.2748 16.8573 24.2764C17.3463 24.2796 17.8581 24.2802 18.4685 24.278H18.4759L18.4834 24.2796C18.4973 24.2823 18.5084 24.2866 18.5186 24.2913Z" fill="white"/>
<path d="M23.9953 20.944V24.0098C23.9953 24.0305 23.9788 24.0481 23.9575 24.0481H23.1804C23.1602 24.0481 23.1426 24.0311 23.1426 24.0098V20.944C23.1426 20.9232 23.1591 20.9056 23.1804 20.9056H23.9575C23.9783 20.9056 23.9953 20.9232 23.9953 20.944Z" fill="white"/>
<path d="M23.957 24.1241H23.1799C23.117 24.1241 23.0664 24.073 23.0664 24.0096V20.9443C23.0664 20.881 23.1175 20.8298 23.1799 20.8298H23.957C24.0198 20.8298 24.0704 20.881 24.0704 20.9443V24.0096C24.0709 24.0724 24.0198 24.1241 23.957 24.1241ZM23.2187 23.9718H23.9191V20.9811H23.2187V23.9718Z" fill="white"/>
<path d="M22.0091 22.024H25.0743C25.0951 22.024 25.1126 22.0406 25.1126 22.0619V22.839C25.1126 22.8592 25.0956 22.8768 25.0743 22.8768H22.0091C21.9883 22.8768 21.9707 22.8603 21.9707 22.839V22.0619C21.9707 22.0411 21.9877 22.024 22.0091 22.024Z" fill="white"/>
<path d="M25.0743 22.9522H22.009C21.9457 22.9522 21.8945 22.9011 21.8945 22.8388V22.0617C21.8945 21.9988 21.9457 21.9482 22.009 21.9482H25.0743C25.1377 21.9482 25.1888 21.9994 25.1888 22.0617V22.8388C25.1888 22.9011 25.1371 22.9522 25.0743 22.9522ZM22.0463 22.7999H25.037V22.0995H22.0463V22.7999Z" fill="white"/>
<path d="M47.9209 30.5171V3.61218H53.5783V14.9627L53.2159 20.729L53.3249 26.531V30.5191H47.9209V30.5171ZM59.4516 30.8082C57.7348 30.8082 56.2615 30.4458 55.0278 29.7211C53.7942 28.9963 52.8516 27.8894 52.2001 26.4043C51.5466 24.9171 51.2219 23.0379 51.2219 20.7666C51.2219 18.4696 51.5664 16.5845 52.2556 15.1092C52.9447 13.634 53.9051 12.535 55.1387 11.8102C56.3724 11.0855 57.81 10.7231 59.4536 10.7231C61.2912 10.7231 62.9407 11.135 64.4041 11.9567C65.8655 12.7785 67.0259 13.9389 67.8853 15.4379C68.7427 16.9369 69.1724 18.7132 69.1724 20.7686C69.1724 22.7983 68.7427 24.5647 67.8853 26.0617C67.0278 27.5607 65.8674 28.727 64.4041 29.5607C62.9387 30.3904 61.2872 30.8082 59.4516 30.8082ZM58.4714 26.1666C59.414 26.1666 60.2536 25.9488 60.9922 25.5132C61.7288 25.0775 62.3209 24.4557 62.7684 23.6458C63.216 22.8359 63.4397 21.8756 63.4397 20.7627C63.4397 19.626 63.216 18.6597 62.7684 17.8617C62.3209 17.0637 61.7288 16.4478 60.9922 16.0122C60.2536 15.5765 59.414 15.3587 58.4714 15.3587C57.5288 15.3587 56.6813 15.5765 55.9328 16.0122C55.1823 16.4478 54.5902 17.0637 54.1565 17.8617C53.7209 18.6597 53.5031 19.626 53.5031 20.7627C53.5031 21.8756 53.7209 22.8359 54.1565 23.6458C54.5922 24.4557 55.1843 25.0775 55.9328 25.5132C56.6833 25.9488 57.5288 26.1666 58.4714 26.1666Z" fill="#0077B5"/>
<path d="M72.9385 30.517V11.0101H78.3405V16.521L77.5781 14.9249C78.1583 13.5467 79.089 12.5012 80.3702 11.7883C81.6513 11.0754 83.2098 10.719 85.0474 10.719V15.9408C84.8058 15.917 84.588 15.8992 84.3939 15.8873C84.1999 15.8754 83.9959 15.8695 83.7781 15.8695C82.2316 15.8695 80.9801 16.3111 80.0256 17.1923C79.0712 18.0754 78.5939 19.4457 78.5939 21.3071V30.517H72.9385Z" fill="#0077B5"/>
<path d="M91.2512 8.28938C90.2116 8.28938 89.3661 7.98839 88.7126 7.38245C88.0591 6.77849 87.7344 6.02799 87.7344 5.13492C87.7344 4.23987 88.0611 3.49136 88.7126 2.8874C89.3661 2.28344 90.2116 1.98047 91.2512 1.98047C92.2908 1.98047 93.1364 2.26562 93.7898 2.83195C94.4433 3.40027 94.768 4.13096 94.768 5.02601C94.768 5.96859 94.4472 6.74879 93.8076 7.36463C93.1661 7.98245 92.3146 8.28938 91.2512 8.28938ZM88.4215 30.5171V11.0102H94.0789V30.5191H88.4215V30.5171Z" fill="#0077B5"/>
<path d="M111.194 10.719C112.741 10.719 114.125 11.0279 115.347 11.6437C116.567 12.2596 117.529 13.2022 118.23 14.4715C118.931 15.7408 119.281 17.3665 119.281 19.3487V30.517H113.624V20.22C113.624 18.6497 113.279 17.4893 112.59 16.7388C111.901 15.9903 110.929 15.614 109.672 15.614C108.777 15.614 107.973 15.8022 107.26 16.1764C106.547 16.5507 105.99 17.1249 105.592 17.8992C105.194 18.6735 104.994 19.6635 104.994 20.8734V30.519H99.3369V11.0101H104.739V16.4121L103.723 14.7804C104.424 13.4754 105.428 12.4715 106.733 11.7705C108.04 11.0695 109.527 10.719 111.194 10.719Z" fill="#0077B5"/>
<path d="M132.841 29.5744C131.027 29.5744 129.39 29.1823 127.928 28.3962C126.465 27.6101 125.293 26.511 124.412 25.0972C123.528 23.6833 123.089 22.0338 123.089 20.1487C123.089 18.2398 123.53 16.5764 124.412 15.1625C125.295 13.7487 126.465 12.6556 127.928 11.8813C129.39 11.1071 131.029 10.7209 132.841 10.7209C134.485 10.7209 135.936 11.0536 137.192 11.719C138.449 12.3843 139.427 13.412 140.128 14.8002C140.829 16.1903 141.18 17.9724 141.18 20.1487C141.18 22.3011 140.829 24.0714 140.128 25.4615C139.427 26.8516 138.447 27.8853 137.192 28.5625C135.934 29.2358 134.485 29.5744 132.841 29.5744ZM133.711 37.8417C131.873 37.8417 130.103 37.618 128.398 37.1705C126.693 36.7229 125.273 36.0516 124.136 35.1586L126.384 31.0972C127.206 31.7744 128.251 32.311 129.521 32.711C130.79 33.1091 132.041 33.3091 133.273 33.3091C135.279 33.3091 136.736 32.8615 137.643 31.9685C138.55 31.0734 139.004 29.7447 139.004 27.9804V25.0417L139.366 20.1467L139.293 15.216V11.0101H144.659V27.2536C144.659 30.8794 143.717 33.5507 141.831 35.2675C139.948 36.9843 137.239 37.8417 133.711 37.8417ZM133.964 24.9328C134.954 24.9328 135.837 24.7328 136.612 24.3348C137.386 23.9368 137.99 23.3744 138.426 22.6497C138.861 21.9249 139.079 21.0912 139.079 20.1487C139.079 19.1823 138.861 18.3427 138.426 17.6279C137.99 16.915 137.386 16.3586 136.612 15.9606C135.837 15.5606 134.956 15.3625 133.964 15.3625C132.972 15.3625 132.091 15.5625 131.317 15.9606C130.542 16.3586 129.932 16.915 129.485 17.6279C129.037 18.3407 128.814 19.1823 128.814 20.1487C128.814 21.0912 129.037 21.9249 129.485 22.6497C129.932 23.3744 130.542 23.9368 131.317 24.3348C132.091 24.7348 132.974 24.9328 133.964 24.9328Z" fill="#0077B5"/>
<path d="M152.748 8.28938C151.709 8.28938 150.863 7.98839 150.21 7.38245C149.556 6.77849 149.231 6.02799 149.231 5.13492C149.231 4.23987 149.558 3.49136 150.21 2.8874C150.863 2.28344 151.709 1.98047 152.748 1.98047C153.788 1.98047 154.633 2.26562 155.287 2.83195C155.94 3.40027 156.265 4.13096 156.265 5.02601C156.265 5.96859 155.944 6.74879 155.305 7.36463C154.663 7.98245 153.812 8.28938 152.748 8.28938ZM149.919 30.5171V11.0102H155.576V30.5191H149.919V30.5171Z" fill="#0077B5"/>
<path d="M172.691 10.719C174.238 10.719 175.622 11.0279 176.844 11.6437C178.064 12.2596 179.026 13.2022 179.727 14.4715C180.428 15.7408 180.779 17.3665 180.779 19.3487V30.517H175.121V20.22C175.121 18.6497 174.777 17.4893 174.087 16.7388C173.398 15.9903 172.426 15.614 171.169 15.614C170.274 15.614 169.47 15.8022 168.757 16.1764C168.044 16.5507 167.487 17.1249 167.089 17.8992C166.691 18.6735 166.491 19.6635 166.491 20.8734V30.519H160.834V11.0101H166.236V16.4121L165.22 14.7804C165.921 13.4754 166.925 12.4715 168.23 11.7705C169.537 11.0695 171.022 10.719 172.691 10.719Z" fill="#0077B5"/>
</svg>
