<svg width="25" height="24" viewBox="0 0 25 24" fill="none" xmlns="http://www.w3.org/2000/svg">
<path d="M12.5684 24C19.1958 24 24.5684 18.6274 24.5684 12C24.5684 5.37258 19.1958 0 12.5684 0C5.94094 0 0.568359 5.37258 0.568359 12C0.568359 18.6274 5.94094 24 12.5684 24Z" fill="#007AB9"/>
<path d="M19.7391 12.9658V17.9132H16.8708V13.2974C16.8708 12.1384 16.4566 11.3469 15.4181 11.3469C14.6256 11.3469 14.1547 11.8798 13.9468 12.3958C13.8713 12.5801 13.8518 12.8362 13.8518 13.0948V17.913H10.9833C10.9833 17.913 11.0218 10.0954 10.9833 9.28613H13.8521V10.5086C13.8463 10.5183 13.8381 10.5277 13.833 10.5369H13.8521V10.5086C14.2332 9.92208 14.9131 9.08355 16.4372 9.08355C18.3243 9.08355 19.7391 10.3165 19.7391 12.9658ZM7.98253 5.12769C7.00132 5.12769 6.35938 5.77177 6.35938 6.61801C6.35938 7.44627 6.98271 8.10897 7.94489 8.10897H7.9635C8.96396 8.10897 9.58601 7.44627 9.58601 6.61801C9.56698 5.77177 8.96396 5.12769 7.98253 5.12769ZM6.52986 17.9132H9.39735V9.28613H6.52986V17.9132Z" fill="#F1F2F2"/>
</svg>
