<svg width="25" height="24" viewBox="0 0 25 24" fill="none" xmlns="http://www.w3.org/2000/svg">
<path d="M24.7135 12.0711C24.7135 5.48289 19.3727 0.14209 12.7845 0.14209C6.19627 0.14209 0.855469 5.48289 0.855469 12.0711C0.855469 18.6593 6.19627 24.0001 12.7845 24.0001C19.3727 24.0001 24.7135 18.6593 24.7135 12.0711Z" fill="url(#paint0_linear_108_3111)"/>
<path opacity="0.1" d="M21.7617 4.22295C20.0225 7.41553 17.563 10.7086 14.4897 13.7819C11.4164 16.8551 8.12335 19.31 4.93548 21.0491C4.73562 20.8754 4.54151 20.6944 4.35316 20.5061C3.21465 19.4056 2.30664 18.0894 1.68206 16.6344C1.05748 15.1793 0.72883 13.6145 0.715281 12.0311C0.701731 10.4477 1.00355 8.87747 1.60314 7.41194C2.20273 5.94641 3.08809 4.61492 4.20759 3.4951C5.3271 2.37529 6.65834 1.48956 8.12371 0.889558C9.58907 0.28956 11.1592 -0.0126984 12.7426 0.000408721C14.326 0.0135158 15.8909 0.341726 17.3461 0.9659C18.8014 1.59007 20.1178 2.49772 21.2186 3.63592C21.4069 3.82427 21.588 4.01995 21.7617 4.22295Z" fill="white"/>
<path d="M15.6096 5.79272H9.95899C9.04317 5.79272 8.16485 6.15654 7.51726 6.80412C6.86967 7.45171 6.50586 8.33003 6.50586 9.24586V14.8964C6.50586 15.8123 6.86967 16.6906 7.51726 17.3382C8.16485 17.9858 9.04317 18.3496 9.95899 18.3496H15.6096C16.5254 18.3496 17.4037 17.9858 18.0513 17.3382C18.6989 16.6906 19.0627 15.8123 19.0627 14.8964V9.24586C19.0627 8.33003 18.6989 7.45171 18.0513 6.80412C17.4037 6.15654 16.5254 5.79272 15.6096 5.79272ZM17.964 14.4004C17.964 15.1564 17.6637 15.8814 17.1291 16.416C16.5946 16.9505 15.8696 17.2509 15.1136 17.2509H10.455C9.69902 17.2509 8.974 16.9505 8.43945 16.416C7.90489 15.8814 7.60458 15.1564 7.60458 14.4004V9.74186C7.60458 8.98588 7.90489 8.26087 8.43945 7.72631C8.974 7.19176 9.69902 6.89145 10.455 6.89145H15.1136C15.8696 6.89145 16.5946 7.19176 17.1291 7.72631C17.6637 8.26087 17.964 8.98588 17.964 9.74186V14.4004Z" fill="white"/>
<path d="M15.073 9.80429L15.0432 9.77446L15.0181 9.74935C14.4246 9.15794 13.6208 8.82603 12.7829 8.82642C12.3598 8.8293 11.9414 8.91551 11.5517 9.08013C11.1619 9.24476 10.8084 9.48456 10.5113 9.78585C10.2142 10.0871 9.97946 10.444 9.82036 10.8361C9.66126 11.2281 9.58097 11.6477 9.58407 12.0708C9.58343 12.9295 9.9219 13.7536 10.5258 14.364C10.8217 14.6634 11.1742 14.9009 11.5628 15.0626C11.9514 15.2243 12.3683 15.307 12.7892 15.3058C13.4206 15.2925 14.0344 15.0958 14.5559 14.7397C15.0774 14.3836 15.484 13.8834 15.7261 13.3002C15.9682 12.7169 16.0354 12.0759 15.9194 11.4551C15.8035 10.8344 15.5094 10.2608 15.073 9.80429ZM12.7829 14.1992C12.3608 14.2051 11.9464 14.0853 11.5924 13.8551C11.2385 13.6248 10.9611 13.2945 10.7954 12.9062C10.6297 12.5178 10.5833 12.089 10.662 11.6742C10.7408 11.2593 10.9411 10.8773 11.2375 10.5767C11.534 10.276 11.9131 10.0703 12.3268 9.98576C12.7404 9.90118 13.1699 9.94156 13.5606 10.1017C13.9512 10.2619 14.2854 10.5347 14.5206 10.8853C14.7558 11.2359 14.8815 11.6486 14.8815 12.0708C14.8836 12.3484 14.8309 12.6236 14.7265 12.8809C14.6222 13.1381 14.4682 13.3722 14.2733 13.5699C14.0784 13.7675 13.8464 13.9248 13.5907 14.0328C13.335 14.1408 13.0605 14.1973 12.7829 14.1992ZM16.9314 8.67731C16.9322 8.77803 16.9132 8.87793 16.8754 8.97128C16.8375 9.06463 16.7817 9.1496 16.7109 9.22133C16.6402 9.29306 16.5561 9.35014 16.4633 9.3893C16.3705 9.42847 16.2709 9.44894 16.1701 9.44956C16.0703 9.44951 15.9714 9.42965 15.8792 9.39112C15.7871 9.35259 15.7035 9.29616 15.6333 9.2251C15.527 9.11721 15.4547 8.98049 15.4253 8.83188C15.396 8.68327 15.4109 8.52931 15.4682 8.38909C15.5255 8.24887 15.6227 8.12856 15.7478 8.04308C15.8729 7.9576 16.0202 7.9107 16.1717 7.9082C16.349 7.90817 16.5206 7.97039 16.6567 8.084L16.6724 8.0997C16.6977 8.1203 16.7209 8.14344 16.7415 8.16876L16.7587 8.18759C16.8711 8.32601 16.9321 8.49904 16.9314 8.67731Z" fill="white"/>
<defs>
<linearGradient id="paint0_linear_108_3111" x1="4.34941" y1="3.63604" x2="21.2196" y2="20.5062" gradientUnits="userSpaceOnUse">
<stop stop-color="#FAE100"/>
<stop offset="0.15" stop-color="#FCB720"/>
<stop offset="0.3" stop-color="#FF7950"/>
<stop offset="0.5" stop-color="#FF1C74"/>
<stop offset="1" stop-color="#6C1CD1"/>
</linearGradient>
</defs>
</svg>
