<svg width="25" height="24" viewBox="0 0 25 24" fill="none" xmlns="http://www.w3.org/2000/svg">
<path d="M12.2832 24C18.9106 24 24.2832 18.6274 24.2832 12C24.2832 5.37258 18.9106 0 12.2832 0C5.65579 0 0.283203 5.37258 0.283203 12C0.283203 18.6274 5.65579 24 12.2832 24Z" fill="#03A9F4"/>
<path d="M20.0572 7.17927C19.4725 7.43462 18.854 7.60427 18.2209 7.68295C18.8883 7.28716 19.3873 6.66013 19.623 5.92085C18.9983 6.29164 18.3147 6.55278 17.6019 6.69295C17.1651 6.22582 16.5979 5.90094 15.974 5.76057C15.35 5.62019 14.6983 5.67082 14.1035 5.90587C13.5087 6.14092 12.9985 6.5495 12.639 7.07849C12.2796 7.60747 12.0877 8.23237 12.0883 8.8719C12.086 9.11601 12.1109 9.35961 12.1625 9.59821C10.8945 9.53594 9.65399 9.20687 8.52189 8.63252C7.38978 8.05817 6.39157 7.25145 5.59247 6.26506C5.18172 6.96676 5.05447 7.79883 5.23671 8.59122C5.41896 9.38361 5.89696 10.0765 6.57299 10.5282C6.0684 10.5146 5.57449 10.3798 5.13299 10.1351V10.1698C5.13441 10.9053 5.389 11.6179 5.85396 12.1878C6.31892 12.7577 6.9659 13.1502 7.68615 13.2993C7.41358 13.3709 7.1327 13.4059 6.85089 13.4035C6.64797 13.4072 6.44524 13.3892 6.24615 13.3498C6.4525 13.9824 6.84977 14.5354 7.38331 14.933C7.91686 15.3305 8.56047 15.553 9.22563 15.5698C8.09845 16.4508 6.7089 16.9294 5.27826 16.9293C5.02335 16.9314 4.76858 16.9167 4.51562 16.8851C5.97437 17.8256 7.67472 18.3225 9.41036 18.3156C15.2762 18.3156 18.483 13.4572 18.483 9.24611C18.483 9.10558 18.483 8.96979 18.4719 8.834C19.0965 8.38328 19.6337 7.82254 20.0572 7.17927Z" fill="white"/>
</svg>
