<svg width="25" height="24" viewBox="0 0 25 24" fill="none" xmlns="http://www.w3.org/2000/svg">
<ellipse cx="12.4249" cy="11.9999" rx="8.57143" ry="8.57143" fill="white"/>
<path fill-rule="evenodd" clip-rule="evenodd" d="M18.4258 12.453C18.4258 13.4243 18.3058 14.3955 18.3058 14.3955C18.3058 14.3955 18.1888 15.222 17.8288 15.5865C17.3728 16.0642 16.8613 16.0665 16.6265 16.0942C14.9473 16.2157 12.4258 16.2195 12.4258 16.2195C12.4258 16.2195 9.30578 16.191 8.34578 16.0995C8.07878 16.0492 7.47878 16.0642 7.02278 15.5865C6.66278 15.222 6.54578 14.3955 6.54578 14.3955C6.54578 14.3955 6.42578 13.4243 6.42578 12.453V11.5425C6.42578 10.5713 6.54578 9.60075 6.54578 9.60075C6.54578 9.60075 6.66278 8.7735 7.02278 8.409C7.47878 7.93125 7.99028 7.929 8.22503 7.90125C9.90428 7.77975 12.4235 7.77975 12.4235 7.77975H12.428C12.428 7.77975 14.9473 7.77975 16.6265 7.90125C16.8613 7.929 17.3728 7.93125 17.8288 8.409C18.1888 8.7735 18.3058 9.60075 18.3058 9.60075C18.3058 9.60075 18.4258 10.5713 18.4258 11.5425V12.453ZM12.4258 0C5.79803 0 0.425781 5.37225 0.425781 12C0.425781 18.627 5.79803 24 12.4258 24C19.0535 24 24.4258 18.627 24.4258 12C24.4258 5.37225 19.0535 0 12.4258 0Z" fill="#EA412C"/>
<path fill-rule="evenodd" clip-rule="evenodd" d="M11.1863 13.5563L14.4285 11.8763L11.1855 10.1843L11.1863 13.5563Z" fill="#EA412C"/>
</svg>
